# xmcd
#
# Track frame offsets:
#       150
#       16030
#       47782
#       75215
#       89945
#       107227
#       125440
#       156312
#
# Disc length: 2358 seconds
#
# Revision: 1
# Processed by: cddbd v1.5.1PL0 Copyright (c) Steve Scherf et al.
# Submitted via: MusiCat 1.1
#
DISCID=5d093408
DTITLE=The Latin Love Orchestra - Music For Love - 1
DYEAR=1900
DGENRE=
TTITLE0=And I Love Her/The Shadow Of Your Smile
TTITLE1=Woman In Love/A Star Is Born
TTITLE2=How Deep Is Your Love/Enamorados
TTITLE3=The Dog Of The Blue/Forever And Ever
TTITLE4=Champagne/Volare
TTITLE5=Feelings/Love Is a Many Splendored Thing
TTITLE6=Close To You/My Way
TTITLE7=Perfidia/La Bamba
EXTD=\n\n
EXTT0=
EXTT1=
EXTT2=
EXTT3=
EXTT4=
EXTT5=
EXTT6=
EXTT7=
PLAYORDER=
